<svg xmlns="http://www.w3.org/2000/svg" viewBox="0 0 210 54" fill="none">
  <!-- Scissors using Material Design content_cut path, scaled to fit left side -->
  <g transform="translate(2, 3) scale(2.0)">
    <path d="M9.64 7.64c.23-.5.36-1.05.36-1.64 0-2.21-1.79-4-4-4S2 3.79 2 6s1.79 4 4 4c.59 0 1.14-.13 1.64-.36L10 12l-2.36 2.36C7.14 14.13 6.59 14 6 14c-2.21 0-4 1.79-4 4s1.79 4 4 4 4-1.79 4-4c0-.59-.13-1.14-.36-1.64L12 14l7 7h3v-1L9.64 7.64zM6 8c-1.1 0-2-.89-2-2s.9-2 2-2 2 .9 2 2-.9 2-2 2zm0 12c-1.1 0-2-.89-2-2s.9-2 2-2 2 .9 2 2-.9 2-2 2zm6-7.5c-.28 0-.5-.22-.5-.5s.22-.5.5-.5.5.22.5.5-.22.5-.5.5zM19 3l-6 6 2 2 7-7V3z"
      fill="#c9a84c"/>
  </g>
  <!-- BILLZ -->
  <text x="57" y="33"
    font-family="Anton, Impact, sans-serif"
    font-size="27"
    fill="#c9a84c"
    letter-spacing="2">BILLZ</text>
  <!-- BARBERSHOP -->
  <text x="58" y="46"
    font-family="DM Sans, Helvetica Neue, sans-serif"
    font-size="8.5"
    fill="rgba(255,255,255,0.5)"
    letter-spacing="4.5"
    font-weight="500">BARBERSHOP</text>
</svg>
